<svg xmlns="http://www.w3.org/2000/svg" xmlns:xlink="http://www.w3.org/1999/xlink" version="1.1" x="0px" y="0px" viewBox="0 0 95 118.75" enable-background="new 0 0 95 95" xml:space="preserve"><path d="M70.4,54c-2,0.6-3.1,1.6-3.4,0.8c-0.5-1.4,1.3-6.5,1.8-10.1c0.6-4.3,2.4-10.4,1.2-13.6c0,0-4.1,10.2-6.8,11  c-1.5,0.4,1-15.6,0.9-19.3c-0.2-5.8-1.7-7.9-1.7-10s-1.1,6-2.9,10s-3.9,6.2-3.9,6.2s-2.1-14.6-5.6-26.3c-0.1-0.4-0.4,4.3-2.5,11.3  c-1.8,5.6-1.9,6.4-2.9,13c-0.4,3-0.8,3.5-0.8,3.5c-4-4-7.6-19.9-7.6-17.8s-0.7,6.7-1.2,12.5c-0.4,4.7,1.9,17.2,0.4,16.7  c-2.7-0.8-6.8-11-6.8-11c-1.2,3.3,0.6,8.9,1.2,13.6c0.4,3.6,2.2,7.2,1.7,8.6C31,54,29.9,54.8,28,53.9c-2.4-1.1-2.9-2.1-3-1.7  c-0.5,6.6,6.3,9.7,6.8,16.3c0.4,4.9-1,20.9,17.3,21.6l0.1,0.1c18.3-0.7,17.1-16.7,17.3-21.6c0.4-9.5,7-12.2,6.8-16.3  C73.3,51.9,72.6,53.3,70.4,54z M59.5,73.7c-1,1.6-2.7,2-4.1,2.3c-0.3,0.1-3.8,2.6-3.8,2.6c0,1.6,4.1,3.2,2.7,5  c-1.3,1.8-10.5,2-11.6,0.2c-1.1-1.8,2.3-3.1,2.3-4.7s-7-0.7-7.7-12.3c-0.6-10.4,5.5-10.7,6-12.9c0.3-1.4-4.9-6-2.8-6.3  c3.4-0.4,12.2,0,13.4,0c1.8,0-1.7,4.2-2.5,5.7c-1,1.9,0.3,1,2.5,3.9c1.1,1.5,3.8-6.6,8.1-4.3C64.9,54.4,61.7,70.3,59.5,73.7z"/><g><g><path d="M56.1,60.5c-0.7-2.8,3.4-5.5,4.1-5.1c1.6,0.9,0.2,9.4-1.2,14.6c-0.7,2.3-3.4,3.5-3,2.4C58.3,65.1,56.1,60.5,56.1,60.5z"/></g></g></svg>
