<svg xmlns="http://www.w3.org/2000/svg" xmlns:xlink="http://www.w3.org/1999/xlink" version="1.1" x="0px" y="0px" viewBox="0 0 90 112.5"><desc iVinci="yes" version="4.4" gridStep="20" showGrid="no" snapToGrid="no" codePlatform="0"/><g><g><desc type="0" basicInfo-basicType="0" basicInfo-roundedRectRadius="12" basicInfo-polygonSides="6" basicInfo-starPoints="5" bounding="rect(-315.138,-481.332,630.277,962.665)" text="" font-familyName="Helvetica" font-pixelSize="20" font-bold="0" font-underline="0" font-alignment="1" strokeStyle="0" markerStart="0" markerEnd="0" shadowEnabled="0" shadowOffsetX="0" shadowOffsetY="2" shadowBlur="4" shadowOpacity="160" blurEnabled="0" blurRadius="4" transform="matrix(0.0935656,0,0,0.0935656,45,45.0362)" pers-center="0,0" pers-size="0,0" pers-start="0,0" pers-end="0,0" locked="0" mesh="" flag=""/><path d="M73.5421,17.062 C69.1421,3.57666 51.2791,-0.581867 44.1218,0.0637741 C32.5067,1.11144 22.5171,5.92673 17.522,15.0461 C12.5268,24.1653 18.4238,40.9441 18.4276,43.0016 C18.578,47.1105 17.349,46.5126 17.1619,47.2199 C16.4314,49.9804 18.2536,53.4975 18.8457,54.8749 C19.4377,56.2522 21.7322,57.8593 23.3104,57.1342 C32.7435,52.8008 29.7718,62.8673 29.7718,63.6648 C29.7512,64.0616 30.4902,65.1928 30.8867,65.2269 C31.5159,65.2926 31.2127,64.777 32.1501,65.7484 C33.3793,67.0222 33.2615,68.2854 33.7424,67.9853 C34.4442,67.5476 35.3156,68.6421 35.3156,68.6421 C35.3156,68.6421 36.2352,66.825 37.7599,68.8829 C39.817,67.1096 40.5189,69.6711 40.7609,69.5398 C41.6806,69.474 42.4989,66.8016 45.3063,69.6915 C47.3636,67.6115 48.3598,68.1095 49.7212,69.4224 C50.6331,68.5162 51.3011,67.5751 52.8378,68.8772 C54.0994,67.4707 54.5158,67.8575 55.316,68.5661 C56.7022,67.2421 57.0123,68.3382 57.0802,68.0303 C57.3811,66.6652 57.8177,67.6024 57.7878,67.1895 C57.7084,66.0994 58.2539,65.8409 58.6678,65.4751 C59.0845,65.107 59.343,65.1784 59.6645,65.0641 C59.9862,64.9499 60.4603,64.6911 60.6204,63.6784 C58.5843,53.112 65.5392,56.7262 66.9649,57.1706 C68.3907,57.6151 70.744,55.8613 71.7231,54.774 C73.1209,53.2219 73.9348,47.1328 73.0207,46.9974 C70.9437,46.6899 71.889,42.0079 71.889,42.0079 C71.889,42.0079 76.389,25.7874 73.5421,17.062 M27.1531,56.5233 L27.4815,56.5377 C27.4854,56.698 27.4819,56.5659 27.5008,56.9337 C27.5009,56.9337 29.6793,56.5101 28.0254,59.2682 C28.1752,61.182 28.7649,63.0487 29.3958,64.8713 C29.918,66.3193 29.4126,65.7601 30.1433,67.5355 C30.1398,67.6408 30.1484,67.7809 30.1717,67.884 C30.2567,68.1665 30.4071,69.2392 30.5528,69.0305 C30.6166,68.9088 30.6482,68.7755 30.6823,68.6449 L30.7375,68.9591 C30.7365,69.314 31.4614,70.0596 31.7135,70.4169 C31.5242,70.6736 31.2815,71.1372 31.3258,71.451 C31.4563,72.1325 31.6068,72.3041 31.7135,72.6846 C32.0506,73.8873 32.5549,74.4265 32.8971,74.5431 C33.2393,74.6596 33.6321,74.862 34.331,74.5431 C34.7968,75.1849 35.6829,74.5197 35.6829,74.5197 C35.6829,74.5197 35.4549,75.4535 37.9874,74.5644 C38.4616,75.9428 39.4085,75.5064 40.1516,74.9428 C40.7155,76.1042 41.7319,75.985 42.8755,75.2524 C43.7207,76.1232 44.9735,76.0325 45.6181,75.39 C46.4891,76.2086 47.7775,75.7763 48.286,75.1147 C48.4959,75.9713 50.3733,75.8368 50.9166,75.2351 C51.5731,75.4591 52.4161,75.7046 53.0247,74.7536 C53.4878,74.9982 54.4135,75.3348 54.8904,74.7536 C55.3541,75.0161 55.4247,75.3807 56.1387,74.7622 C56.8018,74.9997 57.2644,75.3228 58.1004,74.1762 C58.8451,73.1545 59.7689,72.36 59.6833,71.6044 C59.646,71.1404 59.3685,70.6683 59.114,70.2886 C59.2076,70.1363 59.1293,69.9609 59.2089,69.8023 C59.7466,68.996 59.6052,68.7159 59.7831,69.0305 C59.9288,69.2392 60.3732,68.1394 60.4582,67.8569 C60.5379,67.4451 60.4964,66.6203 60.4107,66.2118 C61.2903,64.0355 61.6529,61.9134 62.0567,59.6285 C60.3182,56.5029 62.4752,57.0992 62.4752,57.0992 C62.5034,56.9844 62.5367,56.8708 62.5692,56.7571 C63.0813,56.625 63.6091,56.7059 64.1244,56.7608 L64.1738,56.7712 C64.2069,58.1973 64.1272,59.6231 64.1273,61.0491 C64.1273,61.2826 64.2791,62.522 64.2791,62.522 C64.2791,62.522 64.3766,57.9445 64.7844,56.9276 L64.7995,56.9045 C65.7672,57.0754 66.6507,57.7345 67.6146,57.6991 C68.0418,58.0401 68.2057,58.4886 67.9675,58.9662 C65.0208,63.931 66.6305,75.5447 64.2147,80.5655 C63.8393,81.3459 58.4517,85.9168 57.2166,87.2453 C56.4717,88.0466 52.6622,90.076 51.2381,89.9559 C46.8266,89.5842 44.3715,89.4728 39.5792,90.0613 C38.3208,90.2159 35.2471,88.7096 34.3213,87.9537 C26.3281,81.4283 25.1508,79.9164 24.8042,78.3889 C24.7101,77.2448 24.6722,76.777 24.562,75.4798 C24.356,73.0529 24.1416,70.6264 23.8942,68.2027 C23.7302,66.5947 23.5612,64.9849 23.3135,63.3857 C23.2042,62.6803 23.1024,61.947 22.8488,61.2688 C22.7118,60.9023 22.4818,60.578 22.3335,60.2167 C22.1824,59.8488 22.0824,59.4685 21.9905,59.0857 C21.8843,58.6434 21.8368,58.1505 22.1476,57.7604 C22.7334,57.8836 23.2373,57.619 23.7436,57.409 C24.5823,57.0612 24.4417,57.1229 25.245,56.8572 C25.5006,57.5281 25.5339,58.2897 25.5941,58.991 C25.6858,60.0597 25.7441,61.1308 25.783,62.202 C25.8672,60.3545 25.9461,58.5068 26.02,56.659 L26.5969,56.562 L27.1531,56.5233 M58.3661,70.3753 C58.3447,70.5007 58.3414,70.5983 58.3187,70.7236 C58.3084,70.7796 58.2174,70.9078 58.1757,70.9727 C58.0067,71.2357 57.6995,71.4573 57.4245,71.6278 C57.5356,71.905 57.6711,72.1746 57.818,72.4377 C57.9715,72.7124 58.1338,72.9946 58.3636,73.225 C58.3826,73.2441 58.4084,73.2565 58.4308,73.2723 C58.7557,72.9217 59.1197,72.6055 59.3219,72.1758 C59.5493,71.6925 59.4903,71.1388 58.8528,70.3847 C58.6931,70.1956 58.7513,70.633 58.5139,70.4564 C58.4039,70.3747 58.504,70.132 58.403,70.041 L58.3661,70.3753 M55.3861,72.0428 C55.3564,72.3536 55.2424,72.4156 55.1101,72.6974 L55.1309,72.7952 C55.233,73.3226 55.3075,73.8721 55.1788,74.4011 C55.3092,74.5411 55.4199,74.6932 55.6231,74.7528 C55.6734,74.7525 55.7254,74.7633 55.7739,74.7514 C55.9879,74.6987 56.1191,74.5202 56.2372,74.3657 C56.2168,73.9486 56.1946,73.4042 56.146,73.0207 C56.1191,72.8067 55.9961,72.3153 55.9961,72.3153 C55.9961,72.3153 55.7188,72.3601 55.4831,71.727 L55.3861,72.0428 M53.2285,72.8132 C53.189,72.8805 53.1893,72.9817 53.1374,73.0419 C53.1528,73.4797 53.1065,73.8748 53.2327,74.3001 C53.2401,74.3232 53.2548,74.3439 53.2658,74.3657 C53.4503,74.628 54.4258,74.9417 54.8761,74.5064 C55.3263,74.0709 54.9968,73.1094 54.9968,73.1094 C54.9902,73.0591 54.9835,73.0089 54.9761,72.9586 C54.8614,73.1273 54.74,73.2858 54.5047,73.3135 C54.0264,73.3463 53.2038,73.0564 53.3498,72.5512 L53.2285,72.8132 M52.9216,73.1689 C52.7852,73.2705 52.6598,73.3857 52.5123,73.4742 C52.2094,73.6556 51.8739,73.7806 51.512,73.8234 C51.3692,73.8404 51.2242,73.8172 51.0803,73.8141 C51.0807,74.1458 51.0941,74.4778 51.1446,74.8068 C51.3993,74.9286 51.6646,75.0338 51.9562,75.0514 C52.0466,75.0475 52.1384,75.0554 52.2272,75.0394 C52.511,74.9888 52.7296,74.8535 52.907,74.6518 C52.9262,74.6298 53.0541,74.4676 53.0616,74.4132 C53.0695,74.3558 53.0553,74.2978 53.0523,74.2399 C53.0317,73.8557 53.0113,73.4714 52.9921,73.0872 L52.9216,73.1689 M49.8438,73.8643 C49.614,74.2203 48.9623,74.3468 48.547,74.4319 L48.5523,74.4624 C48.5801,74.5916 48.6302,74.8633 48.7636,74.9728 C49.0287,75.1899 49.2876,75.2356 49.6355,75.2616 C49.7553,75.2563 49.8762,75.2611 49.9949,75.2458 C50.211,75.2182 50.4518,75.154 50.6331,75.038 C50.6999,74.9953 50.8954,74.8346 50.921,74.7227 C50.9378,74.6495 50.9275,74.5733 50.9302,74.4984 C50.9344,74.3822 50.949,73.9301 50.9531,73.803 C50.5999,73.6989 50.6403,73.7372 50.3601,73.5681 C50.3437,73.5581 50.2317,73.4831 50.2055,73.4439 C50.1048,73.2936 50.0734,73.4446 50.0484,73.2723 M45.8556,74.5228 C45.8727,74.6632 45.8773,74.8055 45.9068,74.9444 C45.9143,74.9791 45.9387,75.0104 45.9651,75.0363 C46.2144,75.2798 46.4579,75.3356 46.8112,75.388 C46.9382,75.3868 47.0664,75.3997 47.1923,75.3844 C47.5983,75.3352 47.8966,75.1779 48.1487,74.8895 C48.1523,74.8854 48.3167,74.6581 48.3271,74.602 C48.3347,74.5612 48.3196,74.5196 48.3161,74.4784 C47.9477,74.5526 47.9948,74.5488 47.3683,74.5809 C46.9618,74.6018 46.5107,74.5817 46.1079,74.5084 C46.021,74.4927 45.9362,74.4683 45.8503,74.4484 L45.8556,74.5228 M45.3233,74.0019 C45.3233,74.0019 45.2897,74.1207 45.1225,74.2669 C44.9552,74.413 44.7266,74.4677 44.5049,74.5084 C44.05,74.5918 43.5729,74.6021 43.1126,74.5689 L43.1049,74.6975 C43.1071,74.7357 43.1377,74.7684 43.1584,74.8018 C43.1973,74.8644 43.2341,74.9289 43.2833,74.9852 C43.5322,75.2699 43.8391,75.4313 44.2397,75.4801 C44.3656,75.4954 44.4937,75.4824 44.6209,75.4837 C44.9902,75.4136 45.1987,75.3938 45.4668,75.1319 C45.6436,74.9593 45.5677,74.678 45.6181,74.4484 C45.5829,74.4232 45.355,74.0306 45.3233,74.0019 M40.8558,73.8232 C40.8558,73.8232 40.4978,73.1759 40.5194,73.3391 C40.5412,73.5021 40.3544,73.5921 40.372,73.7234 C40.4258,74.1289 40.4298,74.1511 40.4819,74.5724 C40.4928,74.6598 40.4911,74.7975 40.5362,74.8927 C40.6897,75.216 41.0062,75.353 41.3827,75.3901 C41.5014,75.4018 41.6214,75.3907 41.7409,75.3909 C42.1353,75.3254 42.3339,75.3027 42.6543,75.0658 C42.8135,74.9482 42.8558,74.7386 42.913,74.5766 L42.9175,74.5513 C42.7606,74.5372 42.6024,74.5321 42.4469,74.5087 C42.1529,74.4643 41.8284,74.3952 41.5479,74.2901 C41.2878,74.1927 41.0035,74.052 40.8558,73.8232 M38.2155,73.6888 C38.2797,74.0513 38.2689,74.0006 38.3335,74.3288 C38.3353,74.3389 38.3562,74.4678 38.3704,74.5089 C38.4396,74.709 38.6482,74.9278 38.8658,75.0004 C38.9539,75.0298 39.0504,75.0318 39.1426,75.0476 C39.2279,75.0367 39.3148,75.0328 39.3986,75.0149 C39.6919,74.9529 39.9416,74.7761 40.1742,74.6135 C40.1908,74.2748 40.2059,73.9356 40.2005,73.5965 C39.9928,73.7095 39.9056,73.7743 39.6289,73.812 C39.2405,73.8651 38.9472,73.8252 38.5808,73.7016 C38.4426,73.655 38.3194,73.5778 38.1886,73.5159 L38.2155,73.6888 M37.2418,72.6846 C37.3335,72.9726 36.5864,73.3463 36.108,73.3135 C35.9938,73.2935 36.0465,73.3114 35.949,73.2619 C35.8591,73.6366 35.8861,73.9394 36.0195,74.2993 C36.118,74.5134 36.3133,74.5403 36.5519,74.5707 C36.6615,74.5667 36.7718,74.5706 36.8809,74.559 C37.2145,74.523 37.7019,74.4072 37.9317,74.1665 C37.9631,74.1336 37.9636,74.0448 37.9664,74.0126 C37.995,73.6866 37.9861,73.7826 38.0024,73.401 L37.2418,72.6846 M35.0693,71.8849 C34.9896,72.2989 34.8154,73.0196 34.7702,73.4372 C34.7451,73.667 34.7323,73.8172 34.6866,74.0367 C34.6809,74.0635 34.6697,74.0893 34.6614,74.1155 C34.6577,74.1345 34.654,74.1534 34.6503,74.1723 L34.7111,74.2626 C34.9163,74.344 34.8034,74.3138 35.0527,74.3432 C35.2537,74.3317 35.4846,74.3267 35.6436,74.1926 C35.7261,74.123 35.7434,74.0721 35.744,73.9841 C35.7484,73.3808 35.703,74.0167 35.7953,73.1539 C35.7698,73.1288 35.7402,73.1068 35.7185,73.0791 C35.5955,72.9216 35.512,72.7568 35.4443,72.5718 L35.0693,71.8849 M33.441,71.8733 C33.2293,72.1822 33.1116,72.4145 32.9554,72.752 C32.8561,72.9667 32.7661,73.1841 32.7715,73.4213 C32.7796,73.771 33.0186,74.0752 33.3852,74.1958 C33.4919,74.2308 33.6081,74.2336 33.7196,74.2526 C33.8365,74.239 33.9575,74.2423 34.0704,74.2115 C34.332,74.1404 34.3846,74.0831 34.5631,73.9507 C34.6723,73.352 34.7194,72.7451 34.846,72.1487 C34.8081,72.1822 34.7752,72.2211 34.7322,72.2491 C34.5731,72.3536 34.2657,72.5202 34.0642,72.5547 C34.0343,72.5413 33.9991,72.535 33.9746,72.5147 C33.7399,72.3205 33.6318,72.0335 33.5333,71.7692 L33.441,71.8733 M33.3077,71.6913 C33.4192,71.5706 32.4677,71.1317 32.4153,70.922 C32.3629,70.7122 32.2317,70.6299 32.2026,70.4169 L32.0804,70.5164 C31.8667,70.7474 31.725,70.9474 31.7135,71.2686 C31.7046,71.5114 31.7448,71.6828 31.8338,71.9074 C31.8738,72.008 31.9165,72.1077 31.9528,72.2094 C32.0539,72.4935 32.1043,72.7842 32.1362,73.0807 C32.1637,73.3375 32.1313,73.2025 32.1549,73.2964 L32.1932,73.299 C32.3325,73.1941 32.4345,73.0616 32.5373,72.9263 C32.8767,72.4784 33.1961,71.8121 33.3077,71.6913 M56.6157,72.5123 C56.6157,72.5123 57.1182,72.2785 57.2103,71.6044 C57.4245,72.1097 57.7564,72.7014 57.9125,73.039 C58.0118,73.2536 58.1017,73.471 58.0964,73.7081 C58.0883,74.0578 57.8494,74.3622 57.4826,74.4827 C57.376,74.5177 57.2597,74.5207 57.1483,74.5395 C57.0313,74.5258 56.9103,74.5291 56.7975,74.4984 C56.5357,74.4273 56.6363,74.3849 56.4578,74.2526 C56.3487,73.6538 56.3639,72.9788 56.2372,72.3823 C56.2751,72.4158 56.5728,72.4841 56.6157,72.5123 M59.9214,68.4618 C59.7757,68.253 59.3114,65.8862 59.1628,65.7062 C59.0227,65.5364 59.4556,65.5765 59.932,65.6585 C60.2949,65.7211 60.3216,67.039 60.2366,67.3215 C60.1516,67.604 60.0673,68.6705 59.9214,68.4618 M58.9283,65.8865 C59.1628,65.8664 59.3925,67.473 59.6558,68.3192 C59.7386,68.5855 59.2093,69.4085 59.1628,69.4996 C59.1163,69.591 58.6361,70.5778 58.5598,70.313 C58.4713,70.0063 58.6197,69.0619 58.6113,68.8664 C58.5819,68.1755 58.1585,67.7756 58.0144,67.5065 C57.5938,66.721 58.6127,65.9133 58.9283,65.8865 M57.6943,67.6074 C57.8969,67.5461 58.2766,68.3392 58.3495,68.5955 C58.5004,69.1262 58.2477,70.4645 58.1974,70.6433 C58.1272,70.8932 57.2946,71.4896 57.3092,71.3815 C57.5713,69.4421 57.1986,68.4534 57.205,68.3289 C57.2113,68.2045 57.492,67.669 57.6943,67.6074 M56.9178,68.3369 C56.3833,67.8032 55.346,68.7355 55.4426,69.0719 C55.5907,69.5879 55.5491,69.8332 55.6612,71.7249 C55.6734,71.93 56.3031,72.2049 56.5081,72.2722 C56.7133,72.3394 57.0872,71.639 57.1521,71.2401 C57.1861,71.0311 57.3326,68.7514 56.9178,68.3369 M55.0949,68.7977 C54.5216,67.6074 53.1905,68.4943 53.0564,69.3048 C52.9222,70.1151 53.8709,71.2818 53.5024,72.4395 C53.4107,72.7278 54.0264,73.0676 54.5047,73.035 C54.9831,73.0022 55.2583,72.1581 55.3499,71.6099 C55.4652,70.9183 55.3867,69.4033 55.0949,68.7977 M50.2452,73.2057 C49.8012,72.8516 50.0045,69.9836 50.1781,69.688 C50.861,68.5249 51.591,68.3937 52.2858,68.8145 C52.8774,69.1728 53.4444,71.2836 53.428,71.9675 C53.4042,72.9651 51.4488,74.1655 50.2452,73.2057 M49.8519,73.2211 C49.8827,74.4826 45.7329,74.5379 45.453,73.9335 C45.1293,73.2345 45.4116,70.2592 45.6285,69.9549 C47.0123,68.0122 48.5067,68.4887 49.3259,69.8046 C49.8488,70.6445 49.8242,72.0878 49.8519,73.2211 M30.6913,68.4618 C30.837,68.253 31.3013,65.8862 31.4499,65.7062 C31.5901,65.5364 31.1572,65.5765 30.6807,65.6585 C30.3179,65.7211 30.2912,67.039 30.3761,67.3215 C30.4611,67.604 30.5455,68.6705 30.6913,68.4618 M31.6845,65.8865 C31.4499,65.8664 31.2201,67.473 30.9569,68.3192 C30.874,68.5855 31.4034,69.4085 31.4499,69.4996 C31.4964,69.591 31.9767,70.5778 32.053,70.313 C32.1414,70.0063 31.9931,69.0619 32.0013,68.8664 C32.0309,68.1755 32.4543,67.7756 32.5984,67.5065 C33.0188,66.721 32.0001,65.9133 31.6845,65.8865 M32.9183,67.6074 C32.7159,67.5461 32.3361,68.3392 32.2633,68.5955 C32.1124,69.1262 32.3651,70.4645 32.4153,70.6433 C32.4856,70.8932 33.318,71.4896 33.3034,71.3815 C33.0415,69.4421 33.4142,68.4534 33.4078,68.3289 C33.4014,68.2045 33.1208,67.669 32.9183,67.6074 M33.6949,68.3369 C34.2295,67.8032 35.2667,68.7355 35.1701,69.0719 C35.022,69.5879 35.0637,69.8332 34.9515,71.7249 C34.9394,71.93 34.3097,72.2049 34.1045,72.2722 C33.8995,72.3394 33.5255,71.639 33.4607,71.2401 C33.4266,71.0311 33.2802,68.7514 33.6949,68.3369 M35.5177,68.7977 C36.0911,67.6074 37.4221,68.4943 37.5563,69.3048 C37.6904,70.1151 36.7419,71.2818 37.1104,72.4395 C37.2021,72.7278 36.5864,73.0676 36.108,73.035 C35.6297,73.0022 35.3544,72.1582 35.2629,71.6099 C35.1475,70.9183 35.2259,69.4033 35.5177,68.7977 M40.3676,73.2057 C40.8115,72.8516 40.6083,69.9836 40.4347,69.688 C39.7517,68.5249 39.0217,68.3937 38.3268,68.8145 C37.7354,69.1728 37.1684,71.2836 37.1847,71.9675 C37.2085,72.9651 39.1639,74.1655 40.3676,73.2057 M40.7609,73.2211 C40.73,74.4826 44.8799,74.5379 45.1598,73.9335 C45.4834,73.2345 45.2011,70.2592 44.9843,69.9549 C43.6005,68.0122 42.106,68.4887 41.2869,69.8046 C40.764,70.6445 40.7886,72.0878 40.7609,73.2211 M44.5533,44.9589 C44.6458,44.9699 44.7231,44.9831 44.7907,45.0514 C45.0145,45.2778 45.0249,45.8046 45.0276,46.0961 C45.0437,47.8298 44.7297,49.5502 44.5817,51.2749 C44.5587,51.5442 44.529,51.8173 44.535,52.0881 C44.5405,52.3439 44.5576,52.596 44.5457,52.8514 C44.5173,53.4533 44.4644,54.0564 44.398,54.655 C44.1899,56.5297 44.1482,56.7757 43.9335,58.3205 C43.9335,58.3205 43.9564,59.884 41.7944,59.0864 C40.8634,58.7428 40.4609,59.1403 39.6998,56.2644 C39.5695,55.7079 39.4664,55.3119 39.3977,54.7035 C39.2771,53.6379 39.3294,52.489 39.8686,51.5117 C40.0245,51.2291 40.205,50.9575 40.405,50.6985 C40.8483,50.1247 41.3904,49.6174 41.721,48.976 C41.8752,48.6769 41.8958,48.3807 41.9428,48.061 C41.9731,47.8544 42.0058,47.7369 42.077,47.5159 C42.2939,46.8424 42.6868,46.2337 43.1983,45.7064 C43.437,45.4602 43.8927,45.0905 44.2757,44.9931 C44.3391,44.977 44.4045,44.9685 44.4687,44.9562 L44.5533,44.9589 M46.0885,44.9722 C46.6585,45.0956 47.1122,45.5239 47.4602,45.928 C47.923,46.4653 48.1835,46.9526 48.4059,47.6015 C48.4742,47.8008 48.5496,48.0422 48.56,48.2522 L48.5413,48.2468 C48.511,48.3781 48.6608,48.7914 48.7026,48.8957 C48.861,49.2895 49.1567,49.6289 49.4328,49.9587 C49.715,50.2961 49.9869,50.6093 50.2467,50.9658 C51.0062,52.0082 51.2129,53.2895 51.0827,54.5164 C50.9974,55.3208 50.921,55.5819 50.7603,56.2644 C49.9992,59.1403 49.5967,58.7428 48.6657,59.0864 C46.5037,59.884 46.5265,58.3205 46.5265,58.3205 C46.3492,56.9971 46.1669,55.672 46.0245,54.3455 C45.9711,53.8482 45.9289,53.3495 45.9141,52.85 C45.9098,52.7054 45.9055,52.5407 45.9116,52.3926 C45.9124,52.3713 45.9272,52.2011 45.9268,52.1796 C45.9186,51.6954 45.9085,51.5668 45.86,51.0843 C45.7279,49.773 45.5626,48.4646 45.4634,47.1506 C45.4369,46.7976 45.4292,46.4522 45.4325,46.0961 C45.4348,45.844 45.4519,45.1991 45.6871,45.034 C45.7786,44.9699 45.8757,44.9554 45.9912,44.9562 L46.0885,44.9722 M22.4431,40.4399 C20.9893,34.7007 24.4917,32.9673 30.2412,33.027 C32.3019,33.0811 34.4603,33.0839 36.3324,33.9722 C39.0777,35.2749 39.318,38.3128 39.0969,40.7985 C38.8503,43.4526 33.9709,48.1513 28.8536,47.8527 C22.7074,47.4939 23.4989,44.6074 22.4431,40.4399 M60.2977,33.027 C66.0471,32.9673 69.5497,34.7007 68.0958,40.4399 C67.04,44.6074 67.8315,47.4939 61.6855,47.8527 C56.5681,48.1513 51.6886,43.4526 51.4421,40.7985 C51.2802,38.773 51.3413,36.4077 52.9789,34.8339 C54.8185,33.0658 57.8293,33.0887 60.2977,33.027 M18.034,17.5533 C18.1185,17.6111 18.2031,17.8182 18.2263,17.8655 C18.3109,18.0372 18.3832,18.2136 18.4586,18.3887 C18.9756,19.5832 19.4342,20.7971 19.8525,22.0227 C19.9746,22.381 20.0957,22.7395 20.2052,23.101 C20.6406,24.5385 20.8098,25.0923 21.1058,26.3721 C21.1557,26.588 21.2062,26.8043 21.2417,27.0225 C21.313,27.4595 21.3778,27.8977 21.4262,28.3374 C21.4504,28.5569 21.4522,28.778 21.4589,28.9986 C21.4786,29.6324 21.4504,30.2684 21.3194,30.8921 C21.1944,31.4866 20.8559,32.0309 20.7754,32.6358 C20.742,32.8863 20.7442,33.1402 20.7224,33.3917 C20.6922,33.7424 20.646,34.0916 20.6004,34.4409 C20.3582,36.2939 20.022,38.1469 19.701,39.9869 C19.5989,40.5722 19.4876,41.1561 19.381,41.7407 C19.6286,39.4592 19.8747,37.1777 20.0263,34.8889 C20.0695,34.2371 20.1005,33.5848 20.1341,32.9326 C20.1686,32.2661 20.1927,31.5952 20.1535,30.9285 C20.0876,29.81 19.9168,28.6993 19.7313,27.5928 C19.4804,26.096 19.195,24.6056 18.9111,23.1138 C18.8724,22.9103 18.4009,20.4679 18.2691,19.7324 C18.1922,19.3026 18.1073,18.8738 18.0488,18.4418 C18.0114,18.1647 17.9568,17.8697 17.9827,17.586 C17.9842,17.5692 18.0006,17.5565 18.0096,17.5419 L18.034,17.5533 M72.4619,17.5633 C72.5037,17.6459 72.4843,17.8009 72.4796,17.8714 C72.4678,18.0433 72.4391,18.2151 72.4123,18.3856 C72.314,19.0088 72.298,19.1312 72.1828,19.7521 C71.8116,21.7528 71.4081,23.7489 71.0467,25.7512 C71.0317,25.8343 70.6487,27.9856 70.5585,28.6362 C70.4394,29.4959 70.3456,30.1115 70.3027,30.9285 C70.2583,31.7724 70.3113,32.7978 70.3515,33.6125 C70.3914,34.4185 70.5032,35.9741 70.5719,36.7448 C70.8309,39.6511 70.8189,39.4586 71.0751,41.7407 C70.6547,39.4013 70.2332,37.062 69.893,34.7116 C69.8035,34.0928 69.7739,33.808 69.7173,33.1861 C69.6828,32.8062 69.7328,33.0723 69.6639,32.5336 C69.6037,32.0618 69.3473,31.6324 69.2117,31.1779 C69.0247,30.5518 68.9945,29.9063 68.9899,29.2604 C68.9805,27.9556 69.2706,26.5385 69.6187,25.2742 C70.0021,23.8816 70.1933,23.2473 70.6037,22.0227 C70.8854,21.1823 71.1171,20.5718 71.4584,19.6877 C71.4976,19.5863 71.77,18.9137 71.882,18.6548 C71.9826,18.4224 72.2345,17.7941 72.4006,17.5681 C72.4106,17.5545 72.4313,17.5506 72.4466,17.5419 L72.4619,17.5633 " style="" stroke="none" fill-rule="evenodd" fill="#000000" fill-opacity="1"/></g></g></svg>
