<svg xmlns="http://www.w3.org/2000/svg" xmlns:xlink="http://www.w3.org/1999/xlink" version="1.1" x="0px" y="0px" viewBox="0 0 100 125" enable-background="new 0 0 100 100" xml:space="preserve"><path fill-rule="evenodd" clip-rule="evenodd" d="M64.764,65.456H20.717c0,0-3.068,0.082-5.484-2.128  c-2.414-2.21-4.225-3.479-5.146-4.584c-0.92-1.105-1.965-0.072-1.965-0.072L7.16,57.158l-0.162-1.003l-1.209-0.123l-0.127,0.619  H5.215l-0.02-4.333c0,0,0.512-0.214,0.676-0.491c0.164-0.276,0.307-0.838,0.307-0.838s-0.5-0.287-0.5-0.707  c0-0.419,0.203-0.859,0.859-0.859c0.654,0,1.125-0.021,1.125-0.021v-0.214l3.232,0.061l0.193,0.195l11.133-0.103l1.617,0.307  l6.445,0.533l1.557,1.125h1.289l-1.096-1.095l-7.336-1.136l-0.123-0.124l-0.414,0.346l-0.922-0.778l0.451-0.451l-0.086-0.087  l-4.369-0.176l-0.881-0.491l-0.01-0.552l0.139-0.185c0,0-0.051-2.957,0-2.967c0.051-0.01,0.389,0,0.389,0l0.428,0.195l4.012-0.051  h0.018l-0.018-0.378l0.338-0.862v-4.778h0.225v-3.192h0.164v3.192h0.674v5.691l0.92,0.011v-0.154l9.551-0.061l0.25-0.122  l0.396-0.191l-0.068-0.299l0.193-0.563h0.307l0.072,0.194l0.307-0.082v-1.187h0.357l0.063,0.194h0.348l0.268-0.184h2.26l0.133,0.225  h2.324c0,0,0.168,0.017,0.168-0.173c0-0.19-0.055-0.331-0.055-0.331h-0.389c0,0-0.326-0.568-0.414-0.635  c-0.088-0.066-0.076-0.148-0.076-0.148s0.051-0.164,0.082-0.2c0.031-0.036,0.072-0.245,0.072-0.245h0.285l0.414-0.342l0.072-0.251  h0.818l0.125-0.126l0.488-0.028l0.246-0.097l0.297-0.297H46.1l0.18,0.179h3.27c0,0,0.176-0.15,0.305-0.15  c0.127,0,0.246,0.159,0.246,0.159s0.629-0.017,0.658,0c0.031,0.017,0.369,0.297,0.369,0.297h1.229l0.1-0.1h0.318l0.068,0.067  l1.264,0.013l0.102,0.103c0,0,5.346,0.054,5.346-0.022c0,0,0.154,0.076,0.154,0.266c0,0.19-0.078,0.246-0.17,0.242  c-0.092-0.006-5.412-0.037-5.412-0.037L54.043,39.5l-0.855,0.011l-0.398,0.004l-0.051,0.123l-0.869-0.021v0.159  c0,0,0.131,0.039,0.164,0.164c0.033,0.126-0.053,0.333-0.691,0.333s-1.008,0-1.008,0v1.002c0,0-0.01,0.154-0.322,0.154  c-0.311,0-1.449,0.031-1.449,0.031s-0.133-0.057-0.121-0.215c0.012-0.158-0.035-0.618-0.035-0.618h-1.883c0,0-0.41,1.33-1.238,1.544  C44.457,42.386,45,42.417,45,42.417v0.471h0.223v0.336h0.076l0.322,0.322l2.705,0.179v-0.773l1.412-1.191h3.99v2.32l9.619,0.688  l0.045,0.065c0.162-0.149,0.342-0.324,0.334-0.355c-0.014-0.056,1.051,0,1.051,0l-0.006,0.384c0,0-0.813,0.011-0.813,0.049  c0,0.022-0.158,0.179-0.295,0.307l0.762,1.08h6.059l0.346,0.542h2.018l0.828-0.748l3.611,0.072l0.619,0.619l0.641,0.097l0.209,0.209  l14.305,0.173l0.029-0.599c0,0,0.123-0.017,0.445,0.055s0.801,0.199,0.924,0.245c0.121,0.046,0.133,0.177,0.133,0.261  s-0.107,0.185,0.008,0.198h0.205v1.432h-1.127l-0.332,0.333h-0.967l-0.195-0.197H78.719l-0.25,0.114h-5.504l-0.582-0.399  l-6.055-0.004v0.358h-1.686l-0.248,1.34l-1.145,0.183l-2.691,0.481v0.185h0.451l0.414,0.414l0.24-0.435l0.346-0.266l1.096,0.021  l0.098-0.098h0.865c0,0,0.418,0.107,0.418,0.292s0.072,0.624,0.072,0.624h1.709l0.553,0.686l10.068-0.021  c0,0,1.412,0.191,1.852,0.951c0.438,0.759,0.328-0.389,0.717-0.389s1.074,0,1.074,0s0.873,0.286,0.873,0.875  c0,0.588-0.914,1.366-0.914,1.366l0.604,0.809L80.5,56.672l-0.645-0.644l-2.506,2.947c0,0-0.051,0.113-0.195,0.399  c-0.143,0.286-2.291,2.015-5.178,3.285C69.092,63.926,67.813,65.318,64.764,65.456L64.764,65.456z M71.182,58.977h-3.926  c0.855,0.57,1.422,1.545,1.422,2.653c0,0.823-0.313,1.573-0.824,2.139c1.143-0.543,2.287-1.228,3.383-1.722  c0.902-0.409,2.016-0.983,2.973-1.535c-0.096,0.008-0.193,0.013-0.293,0.013C72.756,60.524,71.74,59.904,71.182,58.977  L71.182,58.977z M10.926,55.318c-0.633,0.249-0.695,0.885-0.59,1.434C10.412,56.22,10.621,55.731,10.926,55.318L10.926,55.318z   M13.531,60.395c0.75,0.672,1.596,1.398,2.475,2.102c1.74,1.395,3.367,1.833,4.295,1.968c-1.027-0.529-1.73-1.6-1.73-2.834  c0-1.108,0.564-2.083,1.422-2.653h-1.01c-1.475,0-1.9-1.173-2.34-2.211c0.021,0.146,0.031,0.293,0.031,0.444  C16.674,58.954,15.271,60.372,13.531,60.395L13.531,60.395z M23.074,64.529l4.127,0.016c-1.117-0.495-1.898-1.614-1.898-2.915  c0-1.108,0.564-2.083,1.422-2.653H23.52c0.857,0.57,1.42,1.545,1.42,2.653C24.939,62.918,24.176,64.027,23.074,64.529L23.074,64.529  z M29.754,64.553l4.441,0.016c-1.148-0.481-1.957-1.616-1.957-2.939c0-1.108,0.566-2.083,1.424-2.653H30.25  c0.859,0.57,1.422,1.545,1.422,2.653C31.672,62.939,30.883,64.063,29.754,64.553L29.754,64.553z M36.633,64.578l4.582,0.016  c-1.184-0.466-2.018-1.618-2.018-2.964c0-1.108,0.566-2.083,1.422-2.653h-3.43c0.855,0.57,1.422,1.545,1.422,2.653  C38.611,62.961,37.793,64.102,36.633,64.578L36.633,64.578z M43.529,64.602l4.914,0.018c-1.215-0.448-2.084-1.618-2.084-2.99  c0-1.108,0.564-2.083,1.424-2.653h-3.637c0.855,0.57,1.422,1.545,1.422,2.653C45.568,62.984,44.721,64.142,43.529,64.602  L43.529,64.602z M50.623,64.627l5.104,0.018c-1.254-0.427-2.156-1.616-2.156-3.015c0-1.108,0.564-2.083,1.422-2.653h-3.684  c0.855,0.57,1.422,1.545,1.422,2.653C52.73,63.01,51.852,64.185,50.623,64.627L50.623,64.627z M57.76,64.652l3.592,0.014  c0,0,1.553,0.155,3.238,0.02c-1.32-0.39-2.283-1.61-2.283-3.055c0-1.108,0.566-2.083,1.422-2.653h-5.211  c0.857,0.57,1.422,1.545,1.422,2.653C59.939,63.037,59.025,64.231,57.76,64.652L57.76,64.652z M25.48,43.728l0.15-0.002v-0.169  L25.48,43.728L25.48,43.728z M46.193,40.682h-0.865v0.584h-0.455v0.137l0.287,0.568C45.16,41.972,45.969,41.756,46.193,40.682  L46.193,40.682z M94.42,47.083l-1.131-0.256c0,0-0.088,0.027-0.055,0.159c0.037,0.132,0.432,0.243,0.492,0.304  c0.063,0.062,0.113,0.369,0.113,0.369s0.029,0.015,0.197,0.015s0.189-0.179,0.26-0.241C94.369,47.372,94.496,47.234,94.42,47.083  L94.42,47.083z M94.322,47.827c0,0-0.086,0-0.146,0.005c-0.063,0.006-0.053,0.138-0.053,0.138s-0.135,0.029-0.24,0  c-0.104-0.027-0.088-0.143-0.088-0.143h-0.213v0.634c0,0,0.096,0,0.127,0s0-0.092,0-0.092s0.303-0.006,0.469-0.006  c0.164,0,0.1,0.176,0.1,0.176l0.152-0.006v-0.686L94.322,47.827L94.322,47.827z M94.209,48.679l0.004-0.218h-0.4  c0,0-0.006,0.208,0,0.218C93.816,48.688,94.215,48.679,94.209,48.679z"/></svg>
